<svg xmlns="http://www.w3.org/2000/svg" viewBox="0 0 120 120" width="120" height="120">
  <defs>
    <clipPath id="clip"><circle cx="60" cy="60" r="58"/></clipPath>
    <radialGradient id="grad" cx="50%" cy="30%" r="70%">
      <stop offset="0%" stop-color="#FFF7ED"/>
      <stop offset="100%" stop-color="#FED7AA"/>
    </radialGradient>
  </defs>
  <circle cx="60" cy="60" r="58" fill="url(#grad)"/>
  <g clip-path="url(#clip)">
    <!-- Shirt -->
    <path d="M18 122 Q18 90 60 88 Q102 90 102 122Z" fill="#0891B2"/>
    <!-- Neck -->
    <rect x="52" y="72" width="16" height="18" rx="4" fill="#FAD5A5"/>
    <!-- Head -->
    <ellipse cx="60" cy="54" rx="24" ry="27" fill="#FDDBB5"/>
    <!-- Ears -->
    <ellipse cx="36" cy="55" rx="5" ry="6" fill="#FAD5A5"/>
    <ellipse cx="36" cy="55" rx="3" ry="4" fill="#FDDBB5"/>
    <ellipse cx="84" cy="55" rx="5" ry="6" fill="#FAD5A5"/>
    <ellipse cx="84" cy="55" rx="3" ry="4" fill="#FDDBB5"/>
    <!-- Hair Base / Hair Back -->
    <path d="M36 45 Q36 20 60 21 Q84 20 84 45 Q82 28 60 27 Q38 28 36 45Z" fill="#111827"/>
    <!-- Eyebrows -->
    <path d="M47 44 Q53 42 58 44" stroke="#111827" stroke-width="2" fill="none" stroke-linecap="round"/><path d="M62 44 Q67 42 73 44" stroke="#111827" stroke-width="2" fill="none" stroke-linecap="round"/>
    <!-- Eyes -->
    
    <ellipse cx="52" cy="51" rx="4.5" ry="4" fill="#fff"/>
    <circle cx="52" cy="51" r="2.8" fill="#1A0A00"/>
    <circle cx="53" cy="50" r="1" fill="#fff"/>
    <ellipse cx="68" cy="51" rx="4.5" ry="4" fill="#fff"/>
    <circle cx="68" cy="51" r="2.8" fill="#1A0A00"/>
    <circle cx="69" cy="50" r="1" fill="#fff"/>
    
    <!-- Nose -->
    <path d="M58 57 Q60 62 62 57" stroke="#FAD5A5" stroke-width="1.5" fill="none" stroke-linecap="round"/>
    <!-- Mouth -->
    <path d="M52 65 Q60 71 68 65" stroke="#FAD5A5" stroke-width="2" fill="none" stroke-linecap="round"/>
    
  </g>
</svg>